<svg xmlns="http://www.w3.org/2000/svg" width="64" height="64" viewBox="0 0 64 64">
  <rect width="64" height="64" rx="12" fill="#3D3E5B"/>
  <g transform="translate(8.38 51.00) scale(0.0266 -0.0266)">
    <path d="M84 0L84 96L127 96Q233 96 262 106.5Q291 117 301 143L809 1376Q817 1399 823 1408Q829 1417 844.5 1423.5Q860 1430 889 1430Q912 1430 922 1427.5Q932 1425 946.5 1413Q961 1401 971 1376L1495 96L1694 96L1694 0Q1622 6 1360 6Q1077 6 999 0L999 96L1194 96L1071 395L522 395L420 147Q412 139 412 123Q412 96 594 96L594 0Q518 6 324 6Q317 6 84 0ZM563 492L1030 492L797 1061Z" fill="#FCFBF9"/>
  </g>
</svg>